<svg width="27" height="27" viewBox="0 0 27 27" fill="none" xmlns="http://www.w3.org/2000/svg">
<path d="M24.9984 24.9688H2.99841V2.96875H15.2184C15.7707 2.96875 16.2184 2.52103 16.2184 1.96875C16.2184 1.41647 15.7707 0.96875 15.2184 0.96875H2.99841C2.46798 0.96875 1.95927 1.17946 1.5842 1.55454C1.20913 1.92961 0.998413 2.43832 0.998413 2.96875V24.9688C0.998413 25.4992 1.20913 26.0079 1.5842 26.383C1.95927 26.758 2.46798 26.9688 2.99841 26.9688H24.9984C25.5288 26.9688 26.0376 26.758 26.4126 26.383C26.7877 26.0079 26.9984 25.4992 26.9984 24.9688V12.9688C26.9984 12.4165 26.5507 11.9688 25.9984 11.9688C25.4461 11.9688 24.9984 12.4165 24.9984 12.9688V24.9688Z" fill="#CDCDCD"/>
</svg>
